<svg width="20" height="21" viewBox="0 0 20 21" fill="none" xmlns="http://www.w3.org/2000/svg">
<g id="Arrow Clockwise">
<path id="Shape" d="M10 6.33333C7.69881 6.33333 5.83333 8.19881 5.83333 10.5C5.83333 12.8012 7.69881 14.6667 10 14.6667C12.3012 14.6667 14.1667 12.8012 14.1667 10.5C14.1667 10.2909 14.1513 10.0854 14.1215 9.88461C14.0842 9.63235 14.2688 9.38889 14.5238 9.38889C14.7299 9.38889 14.9106 9.53124 14.9418 9.73488C14.9801 9.98432 15 10.2398 15 10.5C15 13.2614 12.7614 15.5 10 15.5C7.23858 15.5 5 13.2614 5 10.5C5 7.73858 7.23858 5.5 10 5.5C11.2806 5.5 12.4487 5.98142 13.3333 6.77316V6.19444C13.3333 5.96433 13.5199 5.77778 13.75 5.77778C13.9801 5.77778 14.1667 5.96433 14.1667 6.19444V7.86111C14.1667 8.09123 13.9801 8.27778 13.75 8.27778H12.0833C11.8532 8.27778 11.6667 8.09123 11.6667 7.86111C11.6667 7.63099 11.8532 7.44444 12.0833 7.44444H12.8328C12.0894 6.7549 11.0939 6.33333 10 6.33333Z" fill="#F2A900"/>
</g>
</svg>
