<svg width="24" height="24" viewBox="0 0 24 24" fill="none" xmlns="http://www.w3.org/2000/svg">
<path d="M7.47028 12.2811L7.5544 12.3537C7.84801 12.5716 8.26467 12.5474 8.53094 12.2811L11.2503 9.56176L11.2506 16.2515L11.2575 16.3532C11.3071 16.7193 11.6209 17.0015 12.0006 17.0015L12.1024 16.9946C12.4685 16.945 12.7506 16.6312 12.7506 16.2515L12.7503 9.55976L15.471 12.2817L15.5551 12.3543C15.8487 12.5722 16.2653 12.5481 16.5317 12.2819C16.8246 11.9891 16.8247 11.5142 16.5319 11.2212L12.5319 7.21971L12.4477 7.14707C12.1541 6.92913 11.7374 6.95331 11.4711 7.21961L7.47028 11.2204L7.39766 11.3045C7.17981 11.5982 7.20401 12.0148 7.47028 12.2811ZM22.001 12.001C22.001 6.47813 17.5238 2.00098 12.001 2.00098C6.47813 2.00098 2.00098 6.47813 2.00098 12.001C2.00098 17.5238 6.47813 22.001 12.001 22.001C17.5238 22.001 22.001 17.5238 22.001 12.001ZM3.50098 12.001C3.50098 7.30656 7.30656 3.50098 12.001 3.50098C16.6954 3.50098 20.501 7.30656 20.501 12.001C20.501 16.6954 16.6954 20.501 12.001 20.501C7.30656 20.501 3.50098 16.6954 3.50098 12.001Z" fill="#E7B158"/>
</svg>
