<svg width="24" height="24" viewBox="0 0 24 24" fill="none" xmlns="http://www.w3.org/2000/svg">
<path d="M16.5297 11.7189L16.4456 11.6463C16.152 11.4284 15.7353 11.4526 15.4691 11.7189L12.7497 14.4382L12.7494 7.74854L12.7425 7.64676C12.6929 7.28069 12.3791 6.99854 11.9994 6.99854L11.8976 7.00538C11.5315 7.05504 11.2494 7.36884 11.2494 7.74854L11.2497 14.4402L8.529 11.7183L8.44489 11.6457C8.15132 11.4278 7.73466 11.4519 7.46834 11.7181C7.17539 12.0109 7.1753 12.4858 7.46814 12.7788L11.4681 16.7803L11.5523 16.8529C11.8459 17.0709 12.2626 17.0467 12.5289 16.7804L16.5297 12.7796L16.6023 12.6955C16.8202 12.4018 16.796 11.9852 16.5297 11.7189ZM1.99902 11.999C1.99902 17.5219 6.47617 21.999 11.999 21.999C17.5219 21.999 21.999 17.5219 21.999 11.999C21.999 6.47618 17.5219 1.99902 11.999 1.99902C6.47618 1.99902 1.99902 6.47617 1.99902 11.999ZM20.499 11.999C20.499 16.6934 16.6934 20.499 11.999 20.499C7.3046 20.499 3.49902 16.6934 3.49902 11.999C3.49902 7.3046 7.3046 3.49902 11.999 3.49902C16.6934 3.49902 20.499 7.3046 20.499 11.999Z" fill="#70B761"/>
</svg>
