<svg width="100" height="64" viewBox="0 0 100 64" fill="none" xmlns="http://www.w3.org/2000/svg">
<path fill-rule="evenodd" clip-rule="evenodd" d="M100 22.2497C100 17.8967 96.4712 14.3679 92.1182 14.3679C91.3927 14.3679 90.8046 14.956 90.8046 15.6815L90.8046 45.2382C90.8046 45.9637 91.3927 46.5518 92.1182 46.5518C96.4712 46.5518 100 43.023 100 38.67L100 22.2497ZM86.2069 13.7931L86.2069 49.4253C86.2069 55.7734 81.0607 60.9195 74.7126 60.9195L13.7931 60.9195C7.445 60.9195 2.29885 55.7734 2.29885 49.4253V13.7931C2.29885 7.445 7.445 2.29885 13.7931 2.29885L74.7126 2.29885C81.0607 2.29885 86.2069 7.445 86.2069 13.7931ZM74.7126 0C82.3304 0 88.5057 6.17538 88.5057 13.7931L88.5057 49.4253C88.5057 57.043 82.3304 63.2184 74.7126 63.2184L13.7931 63.2184C6.17538 63.2184 0 57.043 0 49.4253L0 13.7931C0 6.17538 6.17538 0 13.7931 0L74.7126 0Z" fill="#F2A900"/>
<path d="M72.4762 5C78.2883 5 83 9.71167 83 15.5238V47.4762C83 53.2883 78.2883 58 72.4762 58V58C71.1086 58 70 56.8914 70 55.5238V7.47619C70 6.10863 71.1086 5 72.4762 5V5Z" fill="#F2A900" fill-opacity="0.5"/>
<path d="M60 5C63.3137 5 66 7.68629 66 11V52C66 55.3137 63.3137 58 60 58V58C56.6863 58 54 55.3137 54 52V11C54 7.68629 56.6863 5 60 5V5Z" fill="#F2A900" fill-opacity="0.5"/>
<path d="M44.5 5C48.0899 5 51 7.91015 51 11.5V51.5C51 55.0899 48.0899 58 44.5 58V58C40.9101 58 38 55.0899 38 51.5V11.5C38 7.91015 40.9101 5 44.5 5V5Z" fill="#F2A900" fill-opacity="0.5"/>
<path d="M28.5 5C32.0899 5 35 7.91015 35 11.5V51.5C35 55.0899 32.0899 58 28.5 58V58C24.9101 58 22 55.0899 22 51.5L22 11.5C22 7.91015 24.9101 5 28.5 5V5Z" fill="#F2A900" fill-opacity="0.5"/>
<path d="M15.7143 5C16.9767 5 18 6.02335 18 7.28571L18 55.7143C18 56.9767 16.9767 58 15.7143 58V58C10.3492 58 6 53.6508 6 48.2857L6 14.7143C6 9.34924 10.3492 5 15.7143 5V5Z" fill="#F2A900" fill-opacity="0.5"/>
</svg>
