<svg width="20" height="21" viewBox="0 0 20 21" fill="none" xmlns="http://www.w3.org/2000/svg">
<g id="Calendar">
<path id="Shape" d="M5.5 3.21826C4.11929 3.21826 3 4.33755 3 5.71826V6.21826H17V5.71826C17 4.33755 15.8807 3.21826 14.5 3.21826H5.5ZM17 7.21826H3V14.7183C3 16.099 4.11929 17.2183 5.5 17.2183H14.5C15.8807 17.2183 17 16.099 17 14.7183V7.21826ZM8 10.2183C8 10.7705 7.55228 11.2183 7 11.2183C6.44772 11.2183 6 10.7705 6 10.2183C6 9.66598 6.44772 9.21826 7 9.21826C7.55228 9.21826 8 9.66598 8 10.2183ZM7 14.2183C6.44772 14.2183 6 13.7705 6 13.2183C6 12.666 6.44772 12.2183 7 12.2183C7.55228 12.2183 8 12.666 8 13.2183C8 13.7705 7.55228 14.2183 7 14.2183ZM11 10.2183C11 10.7705 10.5523 11.2183 10 11.2183C9.44771 11.2183 9 10.7705 9 10.2183C9 9.66598 9.44771 9.21826 10 9.21826C10.5523 9.21826 11 9.66598 11 10.2183ZM10 14.2183C9.44771 14.2183 9 13.7705 9 13.2183C9 12.666 9.44771 12.2183 10 12.2183C10.5523 12.2183 11 12.666 11 13.2183C11 13.7705 10.5523 14.2183 10 14.2183ZM14 10.2183C14 10.7705 13.5523 11.2183 13 11.2183C12.4477 11.2183 12 10.7705 12 10.2183C12 9.66598 12.4477 9.21826 13 9.21826C13.5523 9.21826 14 9.66598 14 10.2183Z" fill="#00A14B"/>
</g>
</svg>
