<svg width="24" height="24" viewBox="0 0 24 24" fill="none" xmlns="http://www.w3.org/2000/svg" transform="rotate(180)">
  <mask id="mask0_1737_4654" style="mask-type:luminance" maskUnits="userSpaceOnUse" x="2" y="2" width="20" height="20">
    <path d="M18.8666 12.8371C19.0528 12.6332 19.0384 12.3169 18.8345 12.1307C18.6305 11.9446 18.3143 11.959 18.1281 12.1629L12.4974 18.3307V4.5C12.4974 4.22386 12.2735 4 11.9974 4C11.7212 4 11.4974 4.22386 11.4974 4.5V18.3279L5.86927 12.1629C5.68309 11.959 5.36684 11.9446 5.16289 12.1307C4.95895 12.3169 4.94456 12.6332 5.13074 12.8371L11.4448 19.7535C11.5725 19.8934 11.7401 19.9732 11.9132 19.993C11.9406 19.9976 11.9687 20 11.9974 20C12.0242 20 12.0506 19.9979 12.0763 19.9938C12.2522 19.9756 12.4229 19.8955 12.5526 19.7535L18.8666 12.8371Z" fill="white"/>
  </mask>
  <g mask="url(#mask0_1737_4654)">
    <rect x="2" y="2" width="20" height="20" fill="#D8D8D8"/>
  </g>
</svg>
