<svg width="21" height="21" viewBox="0 0 21 21" fill="none" xmlns="http://www.w3.org/2000/svg">
<path d="M9.49854 3.5C8.39397 3.5 7.49854 4.39543 7.49854 5.5V13.5C7.49854 14.6046 8.39397 15.5 9.49854 15.5L14.5 15.5C15.6046 15.5 16.5 14.6046 16.5 13.5V8H16.4985V6.91421C16.4985 6.51639 16.3405 6.13486 16.0592 5.85355L14.145 3.93934C13.8637 3.65804 13.4821 3.5 13.0843 3.5H9.49854ZM14.5 14.5L9.49854 14.5C8.94625 14.5 8.49854 14.0523 8.49854 13.5V5.5C8.49854 4.94772 8.94625 4.5 9.49854 4.5H12.4985V6C12.4985 6.82843 13.1701 7.5 13.9985 7.5H15.4985V8.56135L15.5 8.56102V13.5C15.5 14.0523 15.0523 14.5 14.5 14.5ZM15.2914 6.5H13.9985C13.7224 6.5 13.4985 6.27614 13.4985 6V4.70711L15.2914 6.5ZM5.5 6.5C5.5 5.94772 5.94772 5.5 6.5 5.5V13.5C6.5 15.1569 7.84315 16.5 9.5 16.5L14.5 16.5C14.5 17.0523 14.0523 17.5 13.5 17.5H9.28947C7.1966 17.5 5.5 15.8034 5.5 13.7105V6.5Z" fill="#D8D8D8"/>
</svg>
