<svg width="334" height="125" viewBox="0 0 334 125" fill="none" xmlns="http://www.w3.org/2000/svg">
<rect width="333.617" height="125" fill="#2D2B2C"/>
<g clip-path="url(#clip0_1911_39112)">
<path d="M161.728 51.3228V49.2905C162.849 49.2905 163.76 48.3788 163.76 47.2583H165.792C165.792 49.4995 163.969 51.3228 161.728 51.3228Z" fill="#797979"/>
<path d="M171.889 49.2905V51.3228C169.648 51.3228 167.825 49.4995 167.825 47.2583H169.857C169.857 48.3789 170.769 49.2905 171.889 49.2905Z" fill="#797979"/>
<path d="M163.76 53.355H169.857V55.3872H163.76V53.355Z" fill="#797979"/>
<path d="M157.789 53.8391C157.762 53.6789 157.74 53.5176 157.721 53.3548H157.664C155.422 53.3548 153.599 51.5315 153.599 49.2903C153.599 48.0694 154.141 46.9735 154.996 46.2278C152.942 44.9791 151.567 42.7197 151.567 40.1451V35.0645H152.583C155.085 35.0645 157.591 34.4731 159.828 33.3541L162.331 32.1026C163.774 31.3813 165.389 31 167.002 31C169.071 31 171.075 31.6066 172.796 32.7544L173.224 33.0394C176.999 33.2061 180.019 36.3297 180.019 40.1452V49.2904C180.019 51.5316 178.195 53.3549 175.954 53.3549H175.896C175.878 53.5177 175.855 53.679 175.829 53.8392C181.847 55.4631 186.115 60.9576 186.115 67.2846V75.7098H184.083V90.9518C184.083 92.6326 182.715 94.0001 181.035 94.0001H152.583C150.902 94.0001 149.535 92.6326 149.535 90.9518V75.7097H147.502V67.2844C147.502 60.9575 151.77 55.4631 157.789 53.8391ZM173.922 58.0779C173.342 58.7951 172.657 59.4236 171.889 59.9385V59.9881C171.889 62.2695 170.983 64.3859 169.423 65.9287C170.235 66.1894 171.002 66.5804 171.695 67.0922C173.137 64.8209 173.922 62.1469 173.922 59.4519V58.0779H173.922ZM165.793 45.2258H159.696V52.3387C159.696 56.2608 162.887 59.4515 166.809 59.4515C170.731 59.4515 173.922 56.2608 173.922 52.3387V42.1775C173.922 41.6172 173.466 41.1613 172.906 41.1613H171.889V40.1452C171.889 39.585 171.434 39.1291 170.873 39.1291C170.313 39.1291 169.857 39.585 169.857 40.1452V41.1613C169.857 43.4025 168.034 45.2258 165.793 45.2258ZM166.809 65.4043C168.416 64.4326 169.491 62.822 169.779 60.9862C168.847 61.3072 167.848 61.4839 166.809 61.4839C165.769 61.4839 164.771 61.3071 163.839 60.9862C164.127 62.8221 165.202 64.4326 166.809 65.4043ZM167.003 71.6452H166.614L163.854 84.5274L166.809 87.4825L169.764 84.5272L167.003 71.6452ZM166.421 69.6128H167.197L168.155 67.696C167.773 67.6199 167.381 67.5806 166.983 67.5806H166.809H166.634C166.236 67.5806 165.844 67.6199 165.462 67.696L166.421 69.6128ZM164.195 65.9285C162.635 64.3858 161.728 62.2694 161.728 59.988V59.9384C160.961 59.4235 160.276 58.7951 159.696 58.0778V59.4515C159.696 62.1465 160.481 64.8205 161.923 67.0917C162.616 66.58 163.382 66.1891 164.195 65.9285ZM157.664 51.3225V47.2581C156.543 47.2581 155.631 48.1698 155.631 49.2903C155.631 50.4108 156.543 51.3225 157.664 51.3225ZM172.906 35.0645H172.598L171.669 34.4452C170.282 33.5209 168.669 33.0322 167.002 33.0322C165.703 33.0322 164.402 33.3394 163.24 33.9204L160.737 35.1719C158.522 36.2797 156.073 36.928 153.599 37.0682V40.1452C153.599 42.5988 155.347 44.6514 157.664 45.1236V43.0191C157.664 40.8942 158.491 38.8968 159.993 37.3943L161.431 38.8313C160.312 39.9499 159.696 41.4372 159.696 43.0191V43.1935C161.937 43.1935 163.76 41.3701 163.76 39.129H165.793C165.793 40.6893 165.203 42.114 164.235 43.1935H165.793C166.913 43.1935 167.825 42.2817 167.825 41.1612V40.1451C167.825 38.4643 169.192 37.0967 170.873 37.0967C172.246 37.0967 173.41 38.0095 173.791 39.2599C175.041 39.6401 175.954 40.804 175.954 42.1773V45.2257C176.694 45.2257 177.388 45.4255 177.986 45.7725V40.1452C177.986 37.3437 175.707 35.0645 172.906 35.0645ZM177.986 49.2903C177.986 48.1697 177.074 47.2581 175.954 47.2581V51.3225C177.074 51.3225 177.986 50.4109 177.986 49.2903ZM181.035 91.9678C181.595 91.9678 182.051 91.5119 182.051 90.9516V75.7097H177.986V86.2917L176.252 88.0264C176.06 88.2184 175.954 88.4736 175.954 88.7448V90.9515C175.954 91.5117 176.41 91.9676 176.97 91.9676H181.035V91.9678ZM151.567 90.9516C151.567 91.5119 152.023 91.9678 152.583 91.9678H156.647C157.208 91.9678 157.664 91.5119 157.664 90.9516V88.745C157.664 88.4736 157.558 88.2184 157.366 88.0267L155.631 86.2919V75.7098H151.567V90.9516ZM149.535 73.6775H157.664V69.613H159.696V75.7097H157.664V85.4502L158.803 86.5895C159.379 87.1652 159.696 87.931 159.696 88.745V90.9515C159.696 91.3076 159.634 91.6496 159.521 91.9676H174.097C173.984 91.6496 173.922 91.3076 173.922 90.9515V88.7449C173.922 87.9307 174.239 87.1651 174.815 86.5894L175.954 85.4501V75.7097H173.922V69.613H175.954V73.6775H184.083V67.2844C184.083 62.1124 180.746 57.5899 175.954 55.9954V59.4516C175.954 62.9465 174.799 66.4107 172.702 69.2064L171.999 70.1437L171.171 69.3154C170.831 68.9755 170.457 68.6826 170.056 68.4387L168.893 70.7648L171.983 85.1826L166.809 90.3563L161.635 85.1825L164.725 70.7647L163.561 68.4385C163.161 68.6824 162.787 68.9752 162.447 69.3152L161.618 70.1437L160.915 69.2063C158.819 66.4106 157.664 62.9463 157.664 59.4515V55.9953C152.872 57.5898 149.535 62.1124 149.535 67.2843V73.6775Z" fill="#797979"/>
<path d="M147.502 37.0967H149.534V45.2258H147.502V37.0967Z" fill="#797979"/>
<path d="M141.405 35.0645H143.438V51.3225H141.405V35.0645Z" fill="#797979"/>
<path d="M135.309 37.0967H137.341V49.2903H135.309V37.0967Z" fill="#797979"/>
<path d="M184.083 35.0645H186.115V45.2258H184.083V35.0645Z" fill="#797979"/>
<path d="M190.18 37.0967H192.212V43.1934H190.18V37.0967Z" fill="#797979"/>
<path d="M196.276 33.0322H198.309V49.2903H196.276V33.0322Z" fill="#797979"/>
</g>
<defs>
<clipPath id="clip0_1911_39112">
<rect width="63" height="63" fill="white" transform="matrix(-1 0 0 1 198.309 31)"/>
</clipPath>
</defs>
</svg>
