<svg width="21" height="21" viewBox="0 0 21 21" fill="none" xmlns="http://www.w3.org/2000/svg">
<path d="M13.5 11.5H11.5V13.5H13.5V15.5H11.5V17.5H13.5V15.5H15.5V17.5H17.5V15.5H15.5V13.5H17.5V11.5H15.5V13.5H13.5V11.5ZM5.5 5.5H7.5V7.5H5.5V5.5ZM5.5 3.5C4.39543 3.5 3.5 4.39543 3.5 5.5V7.5C3.5 8.60457 4.39543 9.5 5.5 9.5H7.5C8.60457 9.5 9.5 8.60457 9.5 7.5V5.5C9.5 4.39543 8.60457 3.5 7.5 3.5H5.5ZM4.75 5.25C4.75 4.97386 4.97386 4.75 5.25 4.75H7.75C8.02614 4.75 8.25 4.97386 8.25 5.25V7.75C8.25 8.02614 8.02614 8.25 7.75 8.25H5.25C4.97386 8.25 4.75 8.02614 4.75 7.75V5.25ZM5.5 13.5H7.5V15.5H5.5V13.5ZM5.5 11.5C4.39543 11.5 3.5 12.3954 3.5 13.5V15.5C3.5 16.6046 4.39543 17.5 5.5 17.5H7.5C8.60457 17.5 9.5 16.6046 9.5 15.5V13.5C9.5 12.3954 8.60457 11.5 7.5 11.5H5.5ZM4.75 13.25C4.75 12.9739 4.97386 12.75 5.25 12.75H7.75C8.02614 12.75 8.25 12.9739 8.25 13.25V15.75C8.25 16.0261 8.02614 16.25 7.75 16.25H5.25C4.97386 16.25 4.75 16.0261 4.75 15.75V13.25ZM13.5 5.5H15.5V7.5H13.5V5.5ZM13.5 3.5C12.3954 3.5 11.5 4.39543 11.5 5.5V7.5C11.5 8.60457 12.3954 9.5 13.5 9.5H15.5C16.6046 9.5 17.5 8.60457 17.5 7.5V5.5C17.5 4.39543 16.6046 3.5 15.5 3.5H13.5ZM12.75 5.25C12.75 4.97386 12.9739 4.75 13.25 4.75H15.75C16.0261 4.75 16.25 4.97386 16.25 5.25V7.75C16.25 8.02614 16.0261 8.25 15.75 8.25H13.25C12.9739 8.25 12.75 8.02614 12.75 7.75V5.25Z" fill="#D8D8D8"/>
</svg>
